 <svg  version="1.0" xmlns="http://www.w3.org/2000/svg"  width="450.000000pt" height="114.000000pt" viewBox="0 0 450.000000 114.000000"  preserveAspectRatio="xMidYMid meet">  <g transform="translate(0.000000,114.000000) scale(0.050000,-0.050000)" fill="#ff6a00" stroke="none"> <path d="M1770 2160 c-420 -131 -617 -709 -279 -820 127 -42 176 72 77 182 -108 121 49 376 270 438 432 120 630 -316 231 -512 -106 -51 -112 -58 -101 -114 7 -32 12 -65 12 -71 0 -7 67 -13 148 -13 354 0 430 -376 110 -541 -133 -69 -563 3 -527 88 64 150 104 276 190 598 54 203 99 373 99 378 0 4 -49 7 -108 7 l-108 0 -35 -145 c-58 -236 -203 -756 -214 -767 -6 -6 -62 5 -125 23 -244 71 -447 -80 -372 -276 59 -155 372 -186 516 -51 l44 41 86 -40 c478 -224 956 2 956 453 0 168 -86 298 -238 361 l-60 25 56 73 c293 376 -132 838 -628 683z m-355 -1449 c23 -23 -41 -50 -119 -51 -76 0 -108 24 -85 62 15 23 179 14 204 -11z"/> <path d="M7790 2142 c-44 -21 -115 -73 -157 -117 -73 -77 -80 -80 -149 -61 -73 20 -254 13 -278 -11 -7 -7 -2 -49 11 -92 24 -80 25 -80 109 -70 118 15 147 -8 106 -87 -18 -34 -76 -223 -130 -419 -124 -454 -208 -625 -306 -625 -63 0 -61 45 15 307 83 289 82 363 -11 456 -77 77 -220 80 -328 7 -89 -60 -91 -61 -78 -10 10 36 1 40 -88 40 l-99 0 -59 -235 c-44 -179 -71 -248 -111 -290 -68 -69 -127 -75 -109 -10 91 318 -28 545 -286 545 -221 0 -378 -141 -455 -410 -64 -222 -179 -400 -258 -400 -69 0 -66 33 45 444 l96 354 108 6 108 6 25 85 25 85 -110 0 c-93 0 -108 5 -98 32 47 122 43 128 -66 128 -106 0 -108 -1 -131 -105 -11 -50 -20 -55 -98 -55 -86 0 -86 0 -107 -90 l-20 -90 77 0 c93 0 92 22 13 -269 -59 -216 -74 -248 -156 -335 l-90 -97 -115 185 c-116 187 -142 281 -91 332 37 37 111 28 143 -18 27 -38 37 -40 101 -19 157 52 20 241 -175 241 -206 0 -322 -160 -273 -377 l25 -111 -64 -57 c-74 -66 -116 -63 -101 7 138 662 -530 752 -758 102 -92 -263 -227 -417 -330 -377 -77 29 -36 142 151 411 166 239 162 253 -93 342 -111 39 -223 86 -250 105 -63 45 -105 44 -147 -2 -36 -40 -44 -134 -13 -153 22 -14 9 -131 -31 -265 l-25 -85 80 -21 c44 -12 84 -17 89 -12 15 15 67 219 67 266 0 40 4 41 79 20 115 -34 115 -37 7 -207 -189 -297 -197 -467 -26 -556 126 -65 360 -3 421 112 20 38 25 36 95 -42 134 -151 328 -139 496 30 79 78 118 104 147 96 72 -19 180 14 250 76 l69 60 54 -81 c63 -96 71 -83 -96 -158 -323 -145 -417 -397 -192 -516 246 -129 554 70 572 370 10 163 64 244 98 148 57 -163 258 -173 419 -21 l62 59 32 -44 c121 -173 386 -157 553 34 55 63 80 76 143 76 86 1 90 -8 48 -126 l-29 -83 105 0 106 0 55 195 c94 334 227 554 367 607 117 44 128 -23 45 -292 -131 -427 -71 -540 274 -517 l201 13 36 157 c38 166 57 192 75 102 42 -210 298 -342 500 -258 204 86 429 511 271 513 -19 0 -46 5 -62 11 -19 7 -51 -36 -103 -142 -80 -160 -155 -229 -254 -229 -99 0 -243 206 -162 233 257 87 404 226 404 381 0 200 -225 276 -407 137 -87 -67 -87 -67 -20 121 63 178 60 176 167 138 262 -93 527 8 555 211 30 229 -256 377 -505 261z m299 -169 c99 -72 -47 -194 -194 -162 -135 29 -162 46 -132 83 79 96 247 137 326 79z m-4129 -693 c31 -17 79 -127 80 -182 0 -7 -28 -47 -62 -90 -48 -61 -59 -91 -51 -141 29 -180 -232 -277 -300 -112 -93 221 160 618 333 525z m1960 -20 c49 -49 57 -215 12 -232 -41 -16 -79 -119 -64 -176 41 -163 -244 -246 -309 -90 -95 229 209 650 361 498z m1895 4 c14 -42 -127 -158 -247 -203 -145 -54 -151 -45 -45 71 139 150 267 209 292 132z m-3182 -830 c-39 -155 -313 -291 -313 -156 0 47 45 85 190 158 133 67 140 67 123 -2z"/> </g> </svg> 